<svg width="60" height="60" viewBox="0 0 60 60" fill="none" xmlns="http://www.w3.org/2000/svg">
<path fill-rule="evenodd" clip-rule="evenodd" d="M19.4445 37.9999C19.5432 38 19.6434 38 19.7451 38H49.7451V42H19.7451C17.2933 42 16.457 42.017 15.8196 42.187C14.8874 42.4372 14.0374 42.9283 13.3551 43.6109C12.6725 44.2938 12.1817 45.1444 11.9321 46.0771L8.06812 45.0429C8.4993 43.4319 9.34701 41.9627 10.526 40.7832C11.705 39.6036 13.1738 38.7552 14.7846 38.3232L14.7867 38.3227C16.0002 37.9987 17.4108 37.9992 19.4445 37.9999Z" fill="black"/>
<path fill-rule="evenodd" clip-rule="evenodd" d="M17.0372 7.25685C15.2164 7.50172 14.2762 7.94645 13.6125 8.61091L13.6109 8.61252C12.9465 9.27623 12.5017 10.2164 12.2568 12.0372C12.0043 13.9154 12 16.4085 12 20V40C12 43.5916 12.0043 46.0846 12.2568 47.9628C12.5017 49.7836 12.9465 50.7238 13.6109 51.3875L13.6125 51.3891C14.2762 52.0536 15.2164 52.4983 17.0372 52.7432C18.9154 52.9958 21.4085 53 25 53C26.1046 53 27 53.8954 27 55C27 56.1046 26.1046 57 25 57H24.8547C21.4432 57.0001 18.68 57.0001 16.5041 56.7075C14.2403 56.403 12.3145 55.7492 10.7833 54.2167C9.25083 52.6856 8.59698 50.7597 8.29254 48.496C7.9999 46.32 7.99994 43.5568 8 40.1453V19.8547C7.99994 16.4432 7.9999 13.68 8.29254 11.5041C8.59698 9.2403 9.25083 7.31446 10.7833 5.78329C12.3145 4.25083 14.2403 3.59698 16.5041 3.29254C18.68 2.9999 21.4432 2.99994 24.8547 3H35.1453C38.5568 2.99994 41.32 2.9999 43.496 3.29254C45.7597 3.59698 47.6856 4.25083 49.2167 5.78329C50.7492 7.31446 51.403 9.2403 51.7075 11.5041C52.0001 13.68 52.0001 16.4432 52 19.8547V20C52 21.1046 51.1046 22 50 22C48.8954 22 48 21.1046 48 20C48 16.4085 47.9958 13.9154 47.7432 12.0372C47.4983 10.2164 47.0536 9.27623 46.3891 8.61252L46.3875 8.61091C45.7238 7.94645 44.7836 7.50172 42.9628 7.25685C41.0846 7.00425 38.5916 7 35 7H25C21.4085 7 18.9154 7.00425 17.0372 7.25685ZM18 17.5C18 16.3954 18.8954 15.5 20 15.5H40C41.1046 15.5 42 16.3954 42 17.5C42 18.6046 41.1046 19.5 40 19.5H20C18.8954 19.5 18 18.6046 18 17.5ZM18 26.25C18 25.1454 18.8954 24.25 20 24.25H32.5C33.6046 24.25 34.5 25.1454 34.5 26.25C34.5 27.3546 33.6046 28.25 32.5 28.25H20C18.8954 28.25 18 27.3546 18 26.25ZM50 28C51.1046 28 52 28.8954 52 30V40.1453C52.0001 43.5568 52.0001 46.32 51.7075 48.496C51.403 50.7597 50.7492 52.6856 49.2167 54.2167C47.6856 55.7492 45.7597 56.403 43.496 56.7075C41.32 57.0001 38.5568 57.0001 35.1453 57H35C33.8954 57 33 56.1046 33 55C33 53.8954 33.8954 53 35 53C38.5916 53 41.0846 52.9958 42.9628 52.7432C44.7836 52.4983 45.7238 52.0536 46.3875 51.3891L46.3891 51.3875C47.0536 50.7238 47.4983 49.7836 47.7432 47.9628C47.9958 46.0846 48 43.5916 48 40V30C48 28.8954 48.8954 28 50 28Z" fill="black"/>
</svg>
