<svg width="60" height="60" viewBox="0 0 60 60" fill="none" xmlns="http://www.w3.org/2000/svg">
<path fill-rule="evenodd" clip-rule="evenodd" d="M17.5 4.25C18.6046 4.25 19.5 5.14543 19.5 6.25V8.02972C21.1272 7.99997 22.914 7.99999 24.8722 8L35.1497 8C37.0991 7.99998 38.8787 7.99996 40.5 8.02945V6.25C40.5 5.14543 41.3954 4.25 42.5 4.25C43.6046 4.25 44.5 5.14543 44.5 6.25V8.20216C45.1097 8.25039 45.689 8.31012 46.2391 8.3841C49.184 8.78018 51.5874 9.61736 53.4848 11.5164C55.3814 13.4145 56.2185 15.8169 56.6149 18.7616C56.7615 19.8505 56.8523 21.0541 56.9086 22.3809C56.9099 22.4035 56.9108 22.4262 56.9114 22.4489C57 24.592 57 27.0547 57 29.8722V35.1496C57 39.7364 57.0001 43.3827 56.6159 46.2391C56.2199 49.1836 55.3829 51.5867 53.4845 53.484C51.367 55.6041 48.6202 56.4009 45.1945 56.7355C44.0951 56.8429 43.1169 56.0388 43.0095 54.9395C42.9021 53.8401 43.7062 52.8619 44.8055 52.7545C47.8793 52.4542 49.5073 51.8061 50.6547 50.6569L50.6564 50.6552C51.6874 49.6251 52.3152 48.2072 52.6516 45.7059C52.9958 43.1471 53 39.7703 53 35V30C53 27.9168 52.9991 26.0995 52.9693 24.5H26.875C25.7704 24.5 24.875 23.6046 24.875 22.5C24.875 21.3954 25.7704 20.5 26.875 20.5H52.7836C52.7461 20.0788 52.7022 19.6779 52.6507 19.2953C52.314 16.7944 51.6861 15.3755 50.6552 14.3436C49.6251 13.3126 48.2072 12.6848 45.7059 12.3484C43.1471 12.0043 39.7703 12 35 12H25C20.23 12 16.8537 12.0049 14.2953 12.3493C11.7944 12.686 10.3755 13.3139 9.34361 14.3448C8.31264 15.3749 7.68482 16.7928 7.3484 19.2941C7.29689 19.6771 7.253 20.0784 7.21559 20.5H14.6875C15.7921 20.5 16.6875 21.3954 16.6875 22.5C16.6875 23.6046 15.7921 24.5 14.6875 24.5H7.03038C7.00081 26.0996 7 27.9169 7 30V35C7 39.77 7.00487 43.1463 7.34931 45.7047C7.686 48.2056 8.31386 49.6245 9.34482 50.6564C10.3749 51.6874 11.7928 52.3152 14.2941 52.6516C16.8529 52.9958 20.2297 53 25 53H35C36.1046 53 37 53.8954 37 55C37 56.1046 36.1046 57 35 57H24.8504C20.2636 57 16.6173 57.0001 13.7609 56.6159C10.816 56.2198 8.41259 55.3826 6.51518 53.4836C4.61864 51.5854 3.7815 49.1831 3.38507 46.2384C2.99994 43.3777 2.99997 39.7252 3 35.1278L3 29.8504C2.99997 27.0423 2.99995 24.5868 3.08809 22.4492C3.08865 22.4264 3.0896 22.4038 3.09092 22.3812C3.14699 21.054 3.23761 19.8501 3.3841 18.7609C3.78018 15.816 4.61736 13.4126 6.51639 11.5152C8.41455 9.61864 10.8169 8.7815 13.7616 8.38507C14.3114 8.31104 14.8906 8.25125 15.5 8.20295V6.25C15.5 5.14543 16.3954 4.25 17.5 4.25Z" fill="black"/>
<path d="M45 42.5C45 43.163 44.7366 43.7989 44.2678 44.2678C43.7989 44.7366 43.163 45 42.5 45C41.837 45 41.2011 44.7366 40.7322 44.2678C40.2634 43.7989 40 43.163 40 42.5C40 41.837 40.2634 41.2011 40.7322 40.7322C41.2011 40.2634 41.837 40 42.5 40C43.163 40 43.7989 40.2634 44.2678 40.7322C44.7366 41.2011 45 41.837 45 42.5ZM45 32.5C45 33.163 44.7366 33.7989 44.2678 34.2678C43.7989 34.7366 43.163 35 42.5 35C41.837 35 41.2011 34.7366 40.7322 34.2678C40.2634 33.7989 40 33.163 40 32.5C40 31.837 40.2634 31.2011 40.7322 30.7322C41.2011 30.2634 41.837 30 42.5 30C43.163 30 43.7989 30.2634 44.2678 30.7322C44.7366 31.2011 45 31.837 45 32.5ZM32.5 42.5C32.5 43.163 32.2366 43.7989 31.7678 44.2678C31.2989 44.7366 30.663 45 30 45C29.337 45 28.7011 44.7366 28.2322 44.2678C27.7634 43.7989 27.5 43.163 27.5 42.5C27.5 41.837 27.7634 41.2011 28.2322 40.7322C28.7011 40.2634 29.337 40 30 40C30.663 40 31.2989 40.2634 31.7678 40.7322C32.2366 41.2011 32.5 41.837 32.5 42.5ZM32.5 32.5C32.5 33.163 32.2366 33.7989 31.7678 34.2678C31.2989 34.7366 30.663 35 30 35C29.337 35 28.7011 34.7366 28.2322 34.2678C27.7634 33.7989 27.5 33.163 27.5 32.5C27.5 31.837 27.7634 31.2011 28.2322 30.7322C28.7011 30.2634 29.337 30 30 30C30.663 30 31.2989 30.2634 31.7678 30.7322C32.2366 31.2011 32.5 31.837 32.5 32.5ZM20 42.5C20 43.163 19.7366 43.7989 19.2678 44.2678C18.7989 44.7366 18.163 45 17.5 45C16.837 45 16.2011 44.7366 15.7322 44.2678C15.2634 43.7989 15 43.163 15 42.5C15 41.837 15.2634 41.2011 15.7322 40.7322C16.2011 40.2634 16.837 40 17.5 40C18.163 40 18.7989 40.2634 19.2678 40.7322C19.7366 41.2011 20 41.837 20 42.5ZM20 32.5C20 33.163 19.7366 33.7989 19.2678 34.2678C18.7989 34.7366 18.163 35 17.5 35C16.837 35 16.2011 34.7366 15.7322 34.2678C15.2634 33.7989 15 33.163 15 32.5C15 31.837 15.2634 31.2011 15.7322 30.7322C16.2011 30.2634 16.837 30 17.5 30C18.163 30 18.7989 30.2634 19.2678 30.7322C19.7366 31.2011 20 31.837 20 32.5Z" fill="black"/>
</svg>
