<svg width="60" height="60" viewBox="0 0 60 60" fill="none" xmlns="http://www.w3.org/2000/svg">
<path fill-rule="evenodd" clip-rule="evenodd" d="M40.1642 22.3358C40.9453 23.1168 40.9453 24.3832 40.1642 25.1642L27.6642 37.6642C26.8832 38.4453 25.6168 38.4453 24.8358 37.6642L19.8358 32.6642C19.0547 31.8832 19.0547 30.6168 19.8358 29.8358C20.6168 29.0547 21.8832 29.0547 22.6642 29.8358L26.25 33.4216L37.3358 22.3358C38.1168 21.5547 39.3832 21.5547 40.1642 22.3358Z" fill="black"/>
<path fill-rule="evenodd" clip-rule="evenodd" d="M29.9967 7C25.9608 6.99335 21.9949 8.05461 18.5017 10.0761C17.5457 10.6293 16.3222 10.3028 15.7689 9.34673C15.2157 8.3907 15.5422 7.16719 16.4983 6.61395C20.6018 4.2393 25.2606 2.99248 30.0016 3C44.913 3.00089 57 15.0885 57 30C57 44.9121 44.9121 57 30 57C15.0879 57 3 44.9121 3 30C3 25.0868 4.3148 20.4698 6.61412 16.498C7.16752 15.542 8.39109 15.2157 9.34703 15.7691C10.303 16.3225 10.6293 17.5461 10.0759 18.502C8.1202 21.8802 7 25.8082 7 30C7 42.7029 17.2971 53 30 53C42.7029 53 53 42.7029 53 30C53 17.2971 42.7029 7 30 7L29.9967 7Z" fill="black"/>
</svg>
