<svg width="60" height="60" viewBox="0 0 60 60" fill="none" xmlns="http://www.w3.org/2000/svg">
<path fill-rule="evenodd" clip-rule="evenodd" d="M40.1642 22.3358C40.9453 23.1168 40.9453 24.3832 40.1642 25.1642L27.6642 37.6642C26.8832 38.4453 25.6168 38.4453 24.8358 37.6642L19.8358 32.6642C19.0547 31.8832 19.0547 30.6168 19.8358 29.8358C20.6168 29.0547 21.8832 29.0547 22.6642 29.8358L26.25 33.4216L37.3358 22.3358C38.1168 21.5547 39.3832 21.5547 40.1642 22.3358Z" fill="black"/>
<path fill-rule="evenodd" clip-rule="evenodd" d="M16.5514 7.43968C13.37 7.8673 11.473 8.67762 10.0738 10.0746C8.67753 11.4723 7.86729 13.3688 7.43968 16.5505C7.00425 19.7903 7 24.051 7 30C7 35.949 7.00425 40.2103 7.43968 43.4502C7.86742 46.6328 8.6779 48.5279 10.0737 49.9228C11.4716 51.3206 13.3685 52.1321 16.5506 52.56C19.7904 52.9958 24.0509 53 30 53C35.9491 53 40.2102 52.9958 43.45 52.56C46.6324 52.132 48.5274 51.3211 49.9223 49.9243L49.9238 49.9228C51.3211 48.5264 52.1321 46.6309 52.56 43.449C52.9958 40.2096 53 35.9491 53 30C53 28.8954 53.8954 28 55 28C56.1046 28 57 28.8954 57 30V30.1523C57 35.9157 57.0001 40.4453 56.5243 43.9822C56.0367 47.6079 55.0164 50.4886 52.7512 52.7522C50.4889 55.0168 47.6081 56.0368 43.9831 56.5243C40.4459 57.0001 35.9157 57 30.1523 57H29.8477C24.0843 57 19.5547 57.0001 16.0175 56.5243C12.3917 56.0367 9.51087 55.0165 7.24627 52.7522C4.9821 50.4896 3.96258 47.6085 3.47532 43.983C2.99994 40.4458 2.99996 35.9157 3 30.1523V29.8477C2.99996 24.0843 2.99994 19.5548 3.47532 16.0177C3.96262 12.3919 4.98212 9.511 7.2453 7.24627L7.24675 7.24482C9.51249 4.98218 12.3929 3.96265 16.0186 3.47533C19.5554 2.99994 24.0843 2.99996 29.8477 3H30.1523C35.9157 2.99996 40.4452 2.99994 43.9821 3.47533C47.6074 3.96262 50.4881 4.98216 52.7517 7.24579C55.7574 10.2514 56.5822 14.3616 56.86 19.8998C56.9153 21.003 56.0659 21.9422 54.9627 21.9975C53.8595 22.0528 52.9203 21.2034 52.865 20.1002C52.5928 14.6734 51.7876 11.9386 49.9233 10.0742C48.5269 8.67784 46.6313 7.86738 43.4492 7.43968C40.2097 7.00425 35.949 7 30 7C24.051 7 19.791 7.00425 16.5514 7.43968Z" fill="black"/>
</svg>
