<svg width="60" height="60" viewBox="0 0 60 60" fill="none" xmlns="http://www.w3.org/2000/svg">
<path fill-rule="evenodd" clip-rule="evenodd" d="M26.3793 16.0517C27.1792 16.8134 27.2101 18.0794 26.4483 18.8793L19.3058 26.3793C18.9283 26.7756 18.4049 27 17.8576 27C17.3103 27 16.7868 26.7757 16.4093 26.3794L13.5518 23.3794C12.79 22.5796 12.8208 21.3136 13.6206 20.5518C14.4204 19.79 15.6864 19.8208 16.4482 20.6206L17.8574 22.1001L23.5517 16.1207C24.3134 15.3208 25.5794 15.2899 26.3793 16.0517ZM26.3793 33.5517C27.1792 34.3134 27.2101 35.5794 26.4483 36.3793L19.3058 43.8793C18.9283 44.2756 18.4049 44.5 17.8576 44.5C17.3103 44.5 16.7868 44.2757 16.4093 43.8794L13.5518 40.8794C12.79 40.0796 12.8208 38.8136 13.6206 38.0518C14.4204 37.29 15.6864 37.3208 16.4482 38.1206L17.8574 39.6001L23.5517 33.6207C24.3134 32.8209 25.5794 32.7899 26.3793 33.5517Z" fill="black"/>
<path fill-rule="evenodd" clip-rule="evenodd" d="M16.5514 7.43968C13.37 7.8673 11.473 8.67762 10.0738 10.0746C8.67753 11.4723 7.86729 13.3688 7.43968 16.5505C7.00425 19.7903 7 24.051 7 30C7 35.949 7.00425 40.2103 7.43968 43.4502C7.86742 46.6328 8.6779 48.5279 10.0737 49.9228C11.4716 51.3206 13.3685 52.1321 16.5506 52.56C19.7904 52.9958 24.0509 53 30 53C35.9491 53 40.2102 52.9958 43.45 52.56C46.6324 52.132 48.5274 51.3211 49.9223 49.9243L49.9238 49.9228C51.3211 48.5264 52.1321 46.6309 52.56 43.449C52.9958 40.2096 53 35.9491 53 30C53 28.8954 53.8954 28 55 28C56.1046 28 57 28.8954 57 30V30.1523C57 35.9157 57.0001 40.4453 56.5243 43.9822C56.0367 47.6079 55.0164 50.4886 52.7512 52.7522C50.4889 55.0168 47.6081 56.0368 43.9831 56.5243C40.4459 57.0001 35.9157 57 30.1523 57H29.8477C24.0843 57 19.5547 57.0001 16.0175 56.5243C12.3917 56.0367 9.51087 55.0165 7.24627 52.7522C4.9821 50.4896 3.96258 47.6085 3.47532 43.983C2.99994 40.4458 2.99996 35.9157 3 30.1523V29.8477C2.99996 24.0843 2.99994 19.5548 3.47532 16.0177C3.96262 12.3919 4.98212 9.511 7.2453 7.24627L7.24675 7.24482C9.51249 4.98218 12.3929 3.96265 16.0186 3.47533C19.5554 2.99994 24.0843 2.99996 29.8477 3H30.1523C35.9157 2.99996 40.4452 2.99994 43.9821 3.47533C47.6074 3.96262 50.4881 4.98216 52.7517 7.24579C55.7574 10.2514 56.5822 14.3616 56.86 19.8998C56.9153 21.003 56.0659 21.9422 54.9627 21.9975C53.8595 22.0528 52.9203 21.2034 52.865 20.1002C52.5928 14.6734 51.7876 11.9386 49.9233 10.0742C48.5269 8.67784 46.6313 7.86738 43.4492 7.43968C40.2097 7.00425 35.949 7 30 7C24.051 7 19.791 7.00425 16.5514 7.43968ZM30.5 22.5C30.5 21.3954 31.3954 20.5 32.5 20.5H45C46.1046 20.5 47 21.3954 47 22.5C47 23.6046 46.1046 24.5 45 24.5H32.5C31.3954 24.5 30.5 23.6046 30.5 22.5ZM30.5 40C30.5 38.8954 31.3954 38 32.5 38H45C46.1046 38 47 38.8954 47 40C47 41.1046 46.1046 42 45 42H32.5C31.3954 42 30.5 41.1046 30.5 40Z" fill="black"/>
</svg>
