<svg width="60" height="60" viewBox="0 0 60 60" fill="none" xmlns="http://www.w3.org/2000/svg">
<path fill-rule="evenodd" clip-rule="evenodd" d="M29.9967 7C25.9608 6.99335 21.9949 8.05461 18.5017 10.0761C17.5457 10.6293 16.3222 10.3028 15.7689 9.34673C15.2157 8.3907 15.5422 7.16719 16.4983 6.61395C20.6018 4.2393 25.2606 2.99248 30.0016 3C44.913 3.00089 57 15.0885 57 30C57 44.9121 44.9121 57 30 57C15.0879 57 3 44.9121 3 30C3 25.0868 4.3148 20.4698 6.61412 16.498C7.16752 15.542 8.39109 15.2157 9.34703 15.7691C10.303 16.3225 10.6293 17.5461 10.0759 18.502C8.1202 21.8802 7 25.8082 7 30C7 42.7029 17.2971 53 30 53C42.7029 53 53 42.7029 53 30C53 17.2971 42.7029 7 30 7L29.9967 7ZM22.3358 22.3358C23.1168 21.5547 24.3832 21.5547 25.1642 22.3358L30 27.1716L34.8358 22.3358C35.6168 21.5547 36.8832 21.5547 37.6642 22.3358C38.4453 23.1168 38.4453 24.3832 37.6642 25.1642L32.8284 30L37.6642 34.8358C38.4453 35.6168 38.4453 36.8832 37.6642 37.6642C36.8832 38.4453 35.6168 38.4453 34.8358 37.6642L30 32.8284L25.1642 37.6642C24.3832 38.4453 23.1168 38.4453 22.3358 37.6642C21.5547 36.8832 21.5547 35.6168 22.3358 34.8358L27.1716 30L22.3358 25.1642C21.5547 24.3832 21.5547 23.1168 22.3358 22.3358Z" fill="black"/>
</svg>
