<svg width="60" height="60" viewBox="0 0 60 60" fill="none" xmlns="http://www.w3.org/2000/svg">
<path fill-rule="evenodd" clip-rule="evenodd" d="M43.2059 7.34901C40.6471 7.00486 37.2703 7.00061 32.5 7.00061H27.5C22.73 7.00061 19.3537 7.00548 16.7953 7.34992C14.2944 7.68661 12.8755 8.31447 11.8436 9.34543C10.8126 10.3755 10.1848 11.7934 9.8484 14.2947C9.50425 16.8535 9.5 20.2303 9.5 25.0006V35.0006C9.5 36.1052 8.60457 37.0006 7.5 37.0006C6.39543 37.0006 5.5 36.1052 5.5 35.0006L5.5 24.851C5.49996 20.2642 5.49992 16.618 5.8841 13.7615C6.28018 10.8166 7.11736 8.4132 9.01639 6.51579C10.9146 4.61925 13.3169 3.78211 16.2616 3.38568C19.1223 3.00055 22.7749 3.00058 27.3722 3.00061L32.6496 3.00061C37.2364 3.00057 40.8827 3.00053 43.7391 3.38471C46.6836 3.78073 49.0867 4.61773 50.984 6.51616C53.1042 8.63361 53.9009 11.3804 54.2355 14.8062C54.3429 15.9055 53.5388 16.8837 52.4395 16.9911C51.3401 17.0985 50.3619 16.2944 50.2545 15.1951C49.9542 12.1213 49.3061 10.4933 48.1569 9.34591L48.1552 9.34422C47.1251 8.31325 45.7072 7.68543 43.2059 7.34901ZM18 20.0006C18 18.896 18.8954 18.0006 20 18.0006H30C31.1046 18.0006 32 18.896 32 20.0006C32 21.1052 31.1046 22.0006 30 22.0006H20C18.8954 22.0006 18 21.1052 18 20.0006ZM35.5 20.0006C35.5 18.896 36.3954 18.0006 37.5 18.0006H40C41.1046 18.0006 42 18.896 42 20.0006C42 21.1052 41.1046 22.0006 40 22.0006H37.5C36.3954 22.0006 35.5 21.1052 35.5 20.0006ZM52.5 23.0006C53.6046 23.0006 54.5 23.896 54.5 25.0006V35.1502C54.5 39.737 54.5001 43.3833 54.1159 46.2397C53.7198 49.1846 52.8826 51.588 50.9836 53.4854C49.0855 55.382 46.6831 56.2191 43.7384 56.6155C40.8777 57.0007 37.2251 57.0006 32.6278 57.0006H27.3504C22.7636 57.0007 19.1173 57.0007 16.2609 56.6165C13.3164 56.2205 10.9133 55.3835 9.01603 53.4851C6.89585 51.3676 6.09915 48.6208 5.76448 45.1951C5.65708 44.0957 6.46121 43.1175 7.56054 43.0101C8.65988 42.9027 9.63813 43.7068 9.74553 44.8062C10.0458 47.8799 10.6939 49.5079 11.8431 50.6553L11.8448 50.657C12.8749 51.688 14.2928 52.3158 16.7941 52.6522C19.3529 52.9964 22.7297 53.0006 27.5 53.0006H32.5C37.27 53.0006 40.6463 52.9957 43.2047 52.6513C45.7056 52.3146 47.1245 51.6868 48.1564 50.6558C49.1874 49.6257 49.8152 48.2078 50.1516 45.7065C50.4958 43.1477 50.5 39.7709 50.5 35.0006V25.0006C50.5 23.896 51.3954 23.0006 52.5 23.0006ZM18 30.0006C18 28.896 18.8954 28.0006 20 28.0006H22.5C23.6046 28.0006 24.5 28.896 24.5 30.0006C24.5 31.1052 23.6046 32.0006 22.5 32.0006H20C18.8954 32.0006 18 31.1052 18 30.0006ZM28 30.0006C28 28.896 28.8954 28.0006 30 28.0006H40C41.1046 28.0006 42 28.896 42 30.0006C42 31.1052 41.1046 32.0006 40 32.0006H30C28.8954 32.0006 28 31.1052 28 30.0006ZM18 40.0006C18 38.896 18.8954 38.0006 20 38.0006H32.5C33.6046 38.0006 34.5 38.896 34.5 40.0006C34.5 41.1052 33.6046 42.0006 32.5 42.0006H20C18.8954 42.0006 18 41.1052 18 40.0006Z" fill="black"/>
</svg>
