<svg width="60" height="60" viewBox="0 0 60 60" fill="none" xmlns="http://www.w3.org/2000/svg">
<path fill-rule="evenodd" clip-rule="evenodd" d="M29.9967 7C25.9608 6.99335 21.9949 8.05461 18.5017 10.0761C17.5457 10.6293 16.3222 10.3028 15.7689 9.34673C15.2157 8.3907 15.5422 7.16719 16.4983 6.61395C20.6018 4.2393 25.2606 2.99248 30.0016 3C44.913 3.00089 57 15.0885 57 30C57 44.9121 44.9121 57 30 57C15.0879 57 3 44.9121 3 30C3 25.0868 4.3148 20.4698 6.61412 16.498C7.16752 15.542 8.39109 15.2157 9.34703 15.7691C10.303 16.3225 10.6293 17.5461 10.0759 18.502C8.1202 21.8802 7 25.8082 7 30C7 42.7029 17.2971 53 30 53C42.7029 53 53 42.7029 53 30C53 17.2971 42.7029 7 30 7L29.9967 7Z" fill="black"/>
<path fill-rule="evenodd" clip-rule="evenodd" d="M27.0399 22.3276C26.3744 21.9006 25.5 22.3786 25.5 23.1693L25.5 36.8307C25.5 37.6214 26.3744 38.0993 27.0399 37.6724L37.6879 30.8417C38.3013 30.4482 38.3013 29.5518 37.6879 29.1583L27.0399 22.3276ZM39.8477 34.2085L29.1997 41.0391C25.8719 43.1739 21.5 40.7843 21.5 36.8307L21.5 23.1693C21.5 19.2156 25.8719 16.826 29.1997 18.9608L39.8477 25.7915C42.9147 27.759 42.9147 32.241 39.8477 34.2085Z" fill="black"/>
</svg>
