<svg width="60" height="60" viewBox="0 0 60 60" fill="none" xmlns="http://www.w3.org/2000/svg">
<path fill-rule="evenodd" clip-rule="evenodd" d="M13.7574 10.8943C14.5367 11.6771 14.5339 12.9434 13.751 13.7227C11.608 15.8562 9.90815 18.3926 8.7495 21.1858C7.59086 23.979 6.99628 26.9739 7.00002 29.9978C7.00138 31.1024 6.10706 31.9989 5.00249 32.0003C3.89792 32.0017 3.00139 31.1074 3.00002 30.0028C2.99563 26.4512 3.69395 22.9338 5.05476 19.6532C6.41557 16.3726 8.41197 13.3937 10.929 10.8879C11.7118 10.1086 12.9781 10.1115 13.7574 10.8943ZM46.4513 11.0732C47.2395 10.2993 48.5058 10.3109 49.2796 11.0991C51.5816 13.4436 53.4363 16.1886 54.7525 19.1991C55.195 20.2112 54.7333 21.3903 53.7212 21.8328C52.7092 22.2753 51.53 21.8136 51.0875 20.8015C49.9663 18.237 48.3863 15.8987 46.4254 13.9015C45.6516 13.1133 45.6631 11.8471 46.4513 11.0732ZM20.8661 18.6345C21.6204 19.4414 21.5777 20.7071 20.7708 21.4614C18.4211 23.6578 17 26.6637 17 29.9553C17 33.2862 18.4567 36.3232 20.854 38.5283C21.6669 39.2761 21.7198 40.5413 20.972 41.3543C20.2242 42.1672 18.959 42.2201 18.146 41.4723C14.9934 38.5724 13 34.4944 13 29.9553C13 25.472 14.9439 21.4328 18.0392 18.5393C18.8461 17.785 20.1118 17.8276 20.8661 18.6345ZM39.268 18.7271C40.0319 17.9293 41.2979 17.9018 42.0957 18.6658C45.1078 21.5499 47 25.5346 47 29.9553C47 34.4299 45.0647 38.4577 41.9866 41.3483C41.1814 42.1044 39.9157 42.0646 39.1596 41.2594C38.4035 40.4542 38.4432 39.1885 39.2484 38.4324C41.5853 36.2379 43 33.2407 43 29.9553C43 26.711 41.6173 23.7457 39.3293 21.5549C38.5315 20.7909 38.504 19.5249 39.268 18.7271ZM54.9976 28.0003C56.1021 27.999 56.9987 28.8933 57 29.9978C57.0044 33.5405 56.3096 37.0491 54.9555 40.3227C53.6014 43.5963 51.6145 46.5705 49.1089 49.0749C48.3276 49.8557 47.0613 49.8554 46.2804 49.0742C45.4996 48.2929 45.4999 47.0266 46.2812 46.2457C48.4146 44.1134 50.1063 41.5811 51.2592 38.7938C52.4122 36.0065 53.0037 33.0191 53 30.0028C52.9987 28.8982 53.893 28.0017 54.9976 28.0003ZM6.27924 38.1676C7.29141 37.7254 8.47045 38.1874 8.91271 39.1995C10.0954 41.9062 11.7884 44.3598 13.8991 46.4261C14.6884 47.1988 14.7019 48.4651 13.9292 49.2544C13.1565 50.0437 11.8902 50.0572 11.1009 49.2845C8.62308 46.8588 6.63568 43.9785 5.24733 40.8011C4.80507 39.7889 5.26708 38.6099 6.27924 38.1676Z" fill="black"/>
<path fill-rule="evenodd" clip-rule="evenodd" d="M27.452 24.5474C27.4539 24.548 27.4557 24.5486 27.4576 24.5492C27.9176 24.6979 28.559 25.0395 29.7494 25.6914L29.7528 25.6932C30.3118 25.9979 30.8306 26.2974 31.2735 26.5784L31.2756 26.5797C31.788 26.904 32.3601 27.3024 32.9565 27.7394C34.1364 28.6072 34.8033 29.1059 35.2134 29.5354C35.5096 29.8457 35.5034 29.9439 35.5005 29.989C35.5002 29.9929 35.5 29.9964 35.5 29.9997C35.5 30.0029 35.5002 30.0064 35.5005 30.0103C35.5033 30.0559 35.5094 30.1546 35.213 30.4652C34.8033 30.8946 34.1361 31.3936 32.9562 32.2601L32.9562 32.2601L32.9502 32.2645C32.4049 32.6681 31.8464 33.0533 31.2754 33.4197C30.7801 33.7289 30.2752 34.0226 29.7615 34.3002L29.7615 34.3002L29.7512 34.3058C28.5594 34.959 27.9177 35.3013 27.4573 35.4506C27.4557 35.4511 27.4541 35.4516 27.4526 35.4521C27.4284 35.3813 27.4 35.2816 27.3703 35.1434C27.2383 34.5301 27.1764 33.6456 27.081 32.1657C27.0322 31.3818 27 30.6443 27 29.9997C27 29.3516 27.03 28.6126 27.0807 27.8377L27.081 27.834C27.175 26.354 27.2372 25.4692 27.3691 24.8571C27.3991 24.718 27.4277 24.618 27.452 24.5474ZM27.5254 35.608C27.525 35.6094 27.5193 35.6037 27.5095 35.5867C27.5209 35.5982 27.5258 35.6067 27.5254 35.608ZM27.5078 24.4161C27.5175 24.3992 27.5232 24.3935 27.5236 24.3948C27.524 24.3962 27.5191 24.4046 27.5078 24.4161ZM31.6689 22.182C31.623 22.1569 31.5771 22.1317 31.5312 22.1066C30.5365 21.5614 29.5545 21.0233 28.688 20.7432C27.6437 20.4056 26.4168 20.327 25.2394 21.1256C24.1318 21.873 23.6821 22.9792 23.459 24.0141C23.2554 24.9584 23.1795 26.1537 23.0967 27.4591C23.0942 27.4988 23.0917 27.5386 23.0891 27.5785C23.0349 28.4079 23 29.2382 23 29.9997C23 30.7645 23.0378 31.5962 23.0889 32.4165L23.0891 32.4207C23.0922 32.4689 23.0953 32.517 23.0984 32.5648C23.1817 33.8601 23.2579 35.0467 23.4597 35.9847C23.6825 37.0201 24.1314 38.1275 25.2401 38.8767C26.4191 39.6735 27.6454 39.5945 28.6908 39.2556C29.5561 38.9751 30.5369 38.4371 31.5316 37.8915C31.5773 37.8664 31.623 37.8413 31.6687 37.8163C32.2579 37.4977 32.8369 37.1607 33.4048 36.8057L33.4146 36.7996L33.4243 36.7934C34.0729 36.3776 34.7074 35.9403 35.3267 35.482C35.3657 35.4534 35.4047 35.4248 35.4435 35.3963C36.4598 34.6503 37.4234 33.9429 38.107 33.2266C38.9051 32.3901 39.5 31.3638 39.5 29.9997C39.5 28.635 38.9047 27.6092 38.1066 26.7733C37.4263 26.0607 36.4676 25.3559 35.4564 24.6126C35.4127 24.5805 35.3689 24.5483 35.325 24.516L35.3222 24.5139C34.6844 24.0466 34.0324 23.5906 33.4155 23.2002C32.8741 22.8568 32.274 22.5118 31.6689 22.182Z" fill="black"/>
</svg>
