<svg width="60" height="60" viewBox="0 0 60 60" fill="none" xmlns="http://www.w3.org/2000/svg">
<path fill-rule="evenodd" clip-rule="evenodd" d="M38.9142 28.9142C38.1332 29.6952 36.8668 29.6952 36.0858 28.9142L32 24.8284L32 40C32 41.1045 31.1046 42 30 42C28.8954 42 28 41.1045 28 40L28 24.8284L23.9142 28.9142C23.1332 29.6952 21.8668 29.6952 21.0858 28.9142C20.3047 28.1331 20.3047 26.8668 21.0858 26.0858L28.5858 18.5858C29.3668 17.8047 30.6332 17.8047 31.4142 18.5858L38.9142 26.0858C39.6953 26.8668 39.6953 28.1331 38.9142 28.9142Z" fill="black"/>
<path fill-rule="evenodd" clip-rule="evenodd" d="M29.9967 7C25.9608 6.99335 21.9949 8.05461 18.5017 10.0761C17.5457 10.6293 16.3222 10.3028 15.7689 9.34673C15.2157 8.3907 15.5422 7.16719 16.4983 6.61395C20.6018 4.2393 25.2606 2.99248 30.0016 3C44.913 3.00089 57 15.0885 57 30C57 44.9121 44.9121 57 30 57C15.0879 57 3 44.9121 3 30C3 25.0868 4.3148 20.4698 6.61412 16.498C7.16752 15.542 8.39109 15.2157 9.34703 15.7691C10.303 16.3225 10.6293 17.5461 10.0759 18.502C8.1202 21.8802 7 25.8082 7 30C7 42.7029 17.2971 53 30 53C42.7029 53 53 42.7029 53 30C53 17.2971 42.7029 7 30 7L29.9967 7Z" fill="black"/>
</svg>
