<svg width="60" height="60" viewBox="0 0 60 60" fill="none" xmlns="http://www.w3.org/2000/svg">
<path fill-rule="evenodd" clip-rule="evenodd" d="M19.8358 21.0858C20.6168 20.3047 21.8832 20.3047 22.6642 21.0858L30.1642 28.5858C30.9453 29.3668 30.9453 30.6332 30.1642 31.4142L22.6642 38.9142C21.8832 39.6953 20.6168 39.6953 19.8358 38.9142C19.0547 38.1332 19.0547 36.8668 19.8358 36.0858L25.9216 30L19.8358 23.9142C19.0547 23.1332 19.0547 21.8668 19.8358 21.0858ZM29.8358 21.0858C30.6168 20.3047 31.8832 20.3047 32.6642 21.0858L40.1642 28.5858C40.9453 29.3668 40.9453 30.6332 40.1642 31.4142L32.6642 38.9142C31.8832 39.6953 30.6168 39.6953 29.8358 38.9142C29.0547 38.1332 29.0547 36.8668 29.8358 36.0858L35.9216 30L29.8358 23.9142C29.0547 23.1332 29.0547 21.8668 29.8358 21.0858Z" fill="black"/>
<path fill-rule="evenodd" clip-rule="evenodd" d="M29.9967 7C25.9608 6.99335 21.9949 8.05461 18.5017 10.0761C17.5457 10.6293 16.3222 10.3028 15.7689 9.34673C15.2157 8.3907 15.5422 7.16719 16.4983 6.61395C20.6018 4.2393 25.2606 2.99248 30.0016 3C44.913 3.00089 57 15.0885 57 30C57 44.9121 44.9121 57 30 57C15.0879 57 3 44.9121 3 30C3 25.0868 4.3148 20.4698 6.61412 16.498C7.16752 15.542 8.39109 15.2157 9.34703 15.7691C10.303 16.3225 10.6293 17.5461 10.0759 18.502C8.1202 21.8802 7 25.8082 7 30C7 42.7029 17.2971 53 30 53C42.7029 53 53 42.7029 53 30C53 17.2971 42.7029 7 30 7L29.9967 7Z" fill="black"/>
</svg>
