<svg width="60" height="60" viewBox="0 0 60 60" fill="none" xmlns="http://www.w3.org/2000/svg">
<path fill-rule="evenodd" clip-rule="evenodd" d="M26.7107 21.0851C27.4917 20.3041 28.758 20.3041 29.5391 21.0851L37.0391 28.5851C37.4142 28.9602 37.6249 29.4689 37.6249 29.9994C37.6249 30.5298 37.4142 31.0385 37.0391 31.4136L29.5391 38.9136C28.758 39.6946 27.4917 39.6946 26.7107 38.9136C25.9296 38.1325 25.9296 36.8662 26.7107 36.0851L32.7965 29.9994L26.7107 23.9136C25.9296 23.1325 25.9296 21.8662 26.7107 21.0851Z" fill="black"/>
<path fill-rule="evenodd" clip-rule="evenodd" d="M29.9967 7C25.9608 6.99335 21.9949 8.05461 18.5017 10.0761C17.5457 10.6293 16.3222 10.3028 15.7689 9.34673C15.2157 8.3907 15.5422 7.16719 16.4983 6.61395C20.6018 4.2393 25.2606 2.99248 30.0016 3C44.913 3.00089 57 15.0885 57 30C57 44.9121 44.9121 57 30 57C15.0879 57 3 44.9121 3 30C3 25.0868 4.3148 20.4698 6.61412 16.498C7.16752 15.542 8.39109 15.2157 9.34703 15.7691C10.303 16.3225 10.6293 17.5461 10.0759 18.502C8.1202 21.8802 7 25.8082 7 30C7 42.7029 17.2971 53 30 53C42.7029 53 53 42.7029 53 30C53 17.2971 42.7029 7 30 7L29.9967 7Z" fill="black"/>
</svg>
