<svg width="60" height="60" viewBox="0 0 60 60" fill="none" xmlns="http://www.w3.org/2000/svg">
<path fill-rule="evenodd" clip-rule="evenodd" d="M26.885 25.976C26.7876 26.1867 26.5936 26.3323 26.3694 26.3628L20.5865 27.15C20.0293 27.2258 19.8063 27.9348 20.2138 28.3343L24.4442 32.4811C24.6082 32.6419 24.6824 32.8774 24.6412 33.107L23.5792 39.0295C23.4768 39.6001 24.0609 40.0382 24.5548 39.7614L29.6813 36.8883C29.8801 36.7769 30.1199 36.7769 30.3187 36.8883L35.4452 39.7614C35.9391 40.0382 36.5232 39.6001 36.4209 39.0295L35.3588 33.107C35.3176 32.8774 35.3918 32.6419 35.5558 32.4811L39.7862 28.3343C40.1938 27.9348 39.9707 27.2258 39.4135 27.15L33.6306 26.3628C33.4064 26.3323 33.2124 26.1867 33.115 25.976L30.603 20.54C30.361 20.0163 29.639 20.0163 29.397 20.54L26.885 25.976ZM35.9397 22.4944L39.9337 23.038C43.8035 23.5647 45.4074 28.5302 42.5321 31.3486L39.6217 34.2015L40.3515 38.2711C41.0764 42.3134 36.9572 45.3226 33.5448 43.4102L30 41.4235L26.4552 43.4102C23.0428 45.3226 18.9236 42.3135 19.6485 38.2711L20.3783 34.2015L17.4679 31.3486C14.5925 28.5301 16.1965 23.5647 20.0663 23.038L24.0603 22.4944L25.7918 18.7473C27.4846 15.0842 32.5154 15.0842 34.2082 18.7473L35.9397 22.4944Z" fill="black"/>
<path fill-rule="evenodd" clip-rule="evenodd" d="M29.9967 7C25.9608 6.99335 21.9949 8.05461 18.5017 10.0761C17.5457 10.6293 16.3222 10.3028 15.7689 9.34673C15.2157 8.3907 15.5422 7.16719 16.4983 6.61395C20.6018 4.2393 25.2606 2.99248 30.0016 3C44.913 3.00089 57 15.0885 57 30C57 44.9121 44.9121 57 30 57C15.0879 57 3 44.9121 3 30C3 25.0868 4.3148 20.4698 6.61412 16.498C7.16752 15.542 8.39109 15.2157 9.34703 15.7691C10.303 16.3225 10.6293 17.5461 10.0759 18.502C8.1202 21.8802 7 25.8082 7 30C7 42.7029 17.2971 53 30 53C42.7029 53 53 42.7029 53 30C53 17.2971 42.7029 7 30 7L29.9967 7Z" fill="black"/>
</svg>
